<?xml version="1.0" encoding="utf-8"?>
<!-- Generator: Adobe Illustrator 26.5.0, SVG Export Plug-In . SVG Version: 6.00 Build 0)  -->
<svg version="1.0" xmlns="http://www.w3.org/2000/svg" xmlns:xlink="http://www.w3.org/1999/xlink" x="0px" y="0px"
	 viewBox="0 0 140 70" style="enable-background:new 0 0 140 70;" xml:space="preserve">
<style type="text/css">
	.st0{display:none;}
	.st1{display:inline;fill:#000A68;}
	.st2{fill:#00FFA9;}
	.st3{fill:#FFFFFF;}
</style>
<g id="Camada_2" class="st0">
	<rect x="-2.7" y="-3.9" class="st1" width="145.5" height="76.6"/>
</g>
<g id="Camada_1">
	<g>
		<path class="st2" d="M4.6,36.5h5.3v2.7H1.3V24.8h3.3V36.5z"/>
		<path class="st2" d="M24.9,39.1h-2.6c-0.3,0-0.5-0.1-0.7-0.2c-0.2-0.1-0.3-0.3-0.4-0.5l-0.8-2.5h-5.5L14,38.4
			c-0.1,0.2-0.2,0.3-0.4,0.5c-0.2,0.1-0.4,0.2-0.7,0.2h-2.6l5.6-14.4h3.4L24.9,39.1z M15.7,33.6h3.9l-1.3-3.9
			c-0.1-0.2-0.2-0.5-0.3-0.9c-0.1-0.3-0.2-0.7-0.3-1.1c-0.1,0.4-0.2,0.8-0.3,1.1c-0.1,0.3-0.2,0.6-0.3,0.9L15.7,33.6z"/>
		<path class="st2" d="M28.2,24.8c0.1,0,0.2,0,0.3,0.1c0.1,0,0.2,0.1,0.2,0.2c0.1,0.1,0.2,0.2,0.2,0.3l6.8,8.6c0-0.3,0-0.5-0.1-0.8
			c0-0.3,0-0.5,0-0.7v-7.6h2.9v14.4h-1.7c-0.3,0-0.5,0-0.7-0.1c-0.2-0.1-0.3-0.2-0.5-0.4L28.9,30c0,0.2,0,0.5,0,0.7
			c0,0.2,0,0.5,0,0.7v7.7H26V24.8h1.8C27.9,24.8,28.1,24.8,28.2,24.8z"/>
		<path class="st2" d="M54,31.9c0,1-0.2,2-0.5,2.9c-0.4,0.9-0.9,1.6-1.5,2.3c-0.7,0.6-1.4,1.1-2.4,1.5c-0.9,0.4-1.9,0.5-3.1,0.5H41
			V24.8h5.6c1.1,0,2.1,0.2,3.1,0.5c0.9,0.4,1.7,0.9,2.4,1.5c0.7,0.6,1.2,1.4,1.5,2.3C53.8,30,54,30.9,54,31.9z M50.6,31.9
			c0-0.7-0.1-1.4-0.3-1.9c-0.2-0.6-0.4-1.1-0.8-1.5c-0.3-0.4-0.8-0.7-1.3-0.9c-0.5-0.2-1.1-0.3-1.7-0.3h-2.2v9.2h2.2
			c0.6,0,1.2-0.1,1.7-0.3c0.5-0.2,0.9-0.5,1.3-0.9c0.3-0.4,0.6-0.9,0.8-1.5C50.5,33.3,50.6,32.7,50.6,31.9z"/>
		<path class="st2" d="M59.2,39.1h-3.4V24.8h3.4V39.1z"/>
		<path class="st2" d="M64,24.8c0.1,0,0.2,0,0.3,0.1c0.1,0,0.2,0.1,0.2,0.2c0.1,0.1,0.2,0.2,0.2,0.3l6.8,8.6c0-0.3,0-0.5-0.1-0.8
			c0-0.3,0-0.5,0-0.7v-7.6h2.9v14.4h-1.7c-0.3,0-0.5,0-0.7-0.1c-0.2-0.1-0.3-0.2-0.5-0.4L64.8,30c0,0.2,0,0.5,0,0.7
			c0,0.2,0,0.5,0,0.7v7.7h-2.9V24.8h1.8C63.8,24.8,63.9,24.8,64,24.8z"/>
		<path class="st2" d="M83.6,36.7c0.5,0,0.9,0,1.2-0.1c0.4-0.1,0.7-0.2,1-0.3v-2.2h-1.4c-0.2,0-0.4-0.1-0.5-0.2
			c-0.1-0.1-0.2-0.3-0.2-0.4v-1.8h5.1v6.1c-0.4,0.3-0.8,0.5-1.1,0.7c-0.4,0.2-0.8,0.4-1.3,0.5c-0.5,0.1-0.9,0.2-1.4,0.3
			c-0.5,0.1-1.1,0.1-1.6,0.1c-1.1,0-2-0.2-2.9-0.6c-0.9-0.4-1.7-0.9-2.3-1.5c-0.7-0.7-1.2-1.4-1.5-2.3C76.2,34,76,33,76,31.9
			c0-1.1,0.2-2.1,0.5-3c0.4-0.9,0.9-1.7,1.5-2.3c0.7-0.7,1.5-1.2,2.4-1.5c0.9-0.4,2-0.5,3.1-0.5c0.6,0,1.2,0,1.7,0.1s1,0.2,1.5,0.4
			c0.4,0.2,0.8,0.4,1.2,0.6c0.4,0.2,0.7,0.5,1,0.8l-1,1.5c-0.1,0.1-0.2,0.2-0.3,0.3c-0.1,0.1-0.3,0.1-0.4,0.1
			c-0.2,0-0.4-0.1-0.6-0.2c-0.3-0.2-0.5-0.3-0.7-0.4c-0.2-0.1-0.5-0.2-0.7-0.3c-0.2-0.1-0.5-0.1-0.8-0.2c-0.3,0-0.6,0-0.9,0
			c-0.6,0-1.2,0.1-1.7,0.3c-0.5,0.2-0.9,0.5-1.3,0.9c-0.4,0.4-0.6,0.9-0.8,1.4c-0.2,0.6-0.3,1.2-0.3,1.9c0,0.8,0.1,1.4,0.3,2
			c0.2,0.6,0.5,1.1,0.9,1.5c0.4,0.4,0.8,0.7,1.3,0.9C82.4,36.6,83,36.7,83.6,36.7z"/>
		<path class="st2" d="M94.2,34.3v4.8h-3.3V24.8h5.1c1,0,1.9,0.1,2.6,0.4c0.7,0.2,1.3,0.6,1.8,1c0.5,0.4,0.8,0.9,1,1.5
			c0.2,0.6,0.3,1.2,0.3,1.9c0,0.7-0.1,1.4-0.3,2c-0.2,0.6-0.6,1.1-1.1,1.5c-0.5,0.4-1.1,0.8-1.8,1c-0.7,0.2-1.6,0.4-2.6,0.4H94.2z
			 M94.2,31.8h1.7c0.9,0,1.5-0.2,1.9-0.6c0.4-0.4,0.6-1,0.6-1.7c0-0.3,0-0.6-0.1-0.9c-0.1-0.3-0.2-0.5-0.4-0.7
			c-0.2-0.2-0.5-0.3-0.8-0.4c-0.3-0.1-0.7-0.2-1.1-0.2h-1.7V31.8z"/>
		<path class="st2" d="M115.1,39.1h-2.6c-0.3,0-0.5-0.1-0.7-0.2c-0.2-0.1-0.3-0.3-0.4-0.5l-0.8-2.5h-5.5l-0.8,2.5
			c-0.1,0.2-0.2,0.3-0.4,0.5c-0.2,0.1-0.4,0.2-0.7,0.2h-2.6l5.6-14.4h3.4L115.1,39.1z M105.9,33.6h3.9l-1.3-3.9
			c-0.1-0.2-0.2-0.5-0.3-0.9s-0.2-0.7-0.3-1.1c-0.1,0.4-0.2,0.8-0.3,1.1s-0.2,0.6-0.3,0.9L105.9,33.6z"/>
		<path class="st2" d="M122.4,36.7c0.5,0,0.9,0,1.2-0.1c0.4-0.1,0.7-0.2,1-0.3v-2.2h-1.4c-0.2,0-0.4-0.1-0.5-0.2
			c-0.1-0.1-0.2-0.3-0.2-0.4v-1.8h5.1v6.1c-0.4,0.3-0.8,0.5-1.1,0.7c-0.4,0.2-0.8,0.4-1.3,0.5c-0.5,0.1-0.9,0.2-1.4,0.3
			c-0.5,0.1-1.1,0.1-1.6,0.1c-1.1,0-2-0.2-2.9-0.6c-0.9-0.4-1.7-0.9-2.3-1.5c-0.7-0.7-1.2-1.4-1.5-2.3c-0.4-0.9-0.6-1.9-0.6-2.9
			c0-1.1,0.2-2.1,0.5-3c0.4-0.9,0.9-1.7,1.5-2.3c0.7-0.7,1.5-1.2,2.4-1.5c0.9-0.4,2-0.5,3.1-0.5c0.6,0,1.2,0,1.7,0.1
			c0.5,0.1,1,0.2,1.5,0.4c0.4,0.2,0.8,0.4,1.2,0.6c0.4,0.2,0.7,0.5,1,0.8l-1,1.5c-0.1,0.1-0.2,0.2-0.3,0.3c-0.1,0.1-0.3,0.1-0.4,0.1
			c-0.2,0-0.4-0.1-0.6-0.2c-0.3-0.2-0.5-0.3-0.7-0.4c-0.2-0.1-0.5-0.2-0.7-0.3c-0.2-0.1-0.5-0.1-0.8-0.2c-0.3,0-0.6,0-0.9,0
			c-0.6,0-1.2,0.1-1.7,0.3c-0.5,0.2-0.9,0.5-1.3,0.9c-0.4,0.4-0.6,0.9-0.8,1.4s-0.3,1.2-0.3,1.9c0,0.8,0.1,1.4,0.3,2
			c0.2,0.6,0.5,1.1,0.9,1.5c0.4,0.4,0.8,0.7,1.3,0.9C121.3,36.6,121.8,36.7,122.4,36.7z"/>
		<path class="st2" d="M139,24.8v2.6h-5.9v3.4h4.5v2.5h-4.5v3.4h5.9v2.6h-9.2V24.8H139z"/>
	</g>
	<g>
		<path class="st3" d="M28.7,51.4v3.4h-1.2v-9h2.7c0.6,0,1.1,0.1,1.5,0.2c0.4,0.1,0.8,0.3,1,0.6c0.3,0.2,0.5,0.5,0.6,0.9
			c0.1,0.3,0.2,0.7,0.2,1.2c0,0.4-0.1,0.8-0.2,1.2c-0.1,0.3-0.4,0.6-0.6,0.9c-0.3,0.3-0.6,0.4-1.1,0.6c-0.4,0.1-0.9,0.2-1.4,0.2
			H28.7z M28.7,50.4h1.4c0.3,0,0.7,0,0.9-0.1c0.3-0.1,0.5-0.2,0.7-0.4c0.2-0.2,0.3-0.4,0.4-0.6c0.1-0.2,0.1-0.5,0.1-0.8
			c0-0.6-0.2-1-0.5-1.3c-0.4-0.3-0.9-0.5-1.6-0.5h-1.4V50.4z"/>
		<path class="st3" d="M45.4,54.7h-0.9c-0.1,0-0.2,0-0.3-0.1c-0.1-0.1-0.1-0.1-0.2-0.2l-0.8-2.2h-4.1l-0.8,2.2
			c0,0.1-0.1,0.1-0.2,0.2c-0.1,0.1-0.2,0.1-0.3,0.1H37l3.6-9h1.2L45.4,54.7z M39.5,51.4h3.4l-1.4-3.7c-0.1-0.2-0.2-0.5-0.3-0.9
			c0,0.2-0.1,0.3-0.1,0.5c0,0.1-0.1,0.3-0.1,0.4L39.5,51.4z"/>
		<path class="st3" d="M51.6,51v3.8h-1.2v-9h2.6c0.6,0,1.1,0.1,1.5,0.2c0.4,0.1,0.8,0.3,1,0.5c0.3,0.2,0.5,0.5,0.6,0.8
			c0.1,0.3,0.2,0.7,0.2,1c0,0.3-0.1,0.6-0.2,0.9s-0.2,0.5-0.4,0.7c-0.2,0.2-0.4,0.4-0.7,0.6c-0.3,0.2-0.6,0.3-0.9,0.4
			c0.2,0.1,0.3,0.2,0.4,0.4l2.6,3.6h-1.1c-0.2,0-0.4-0.1-0.5-0.3l-2.3-3.2c-0.1-0.1-0.1-0.2-0.2-0.2c-0.1,0-0.2-0.1-0.4-0.1H51.6z
			 M51.6,50.1h1.3c0.4,0,0.7,0,0.9-0.1c0.3-0.1,0.5-0.2,0.7-0.4c0.2-0.2,0.3-0.3,0.4-0.6c0.1-0.2,0.1-0.5,0.1-0.7
			c0-0.5-0.2-0.9-0.5-1.2c-0.4-0.3-0.9-0.4-1.6-0.4h-1.3V50.1z"/>
		<path class="st3" d="M69.9,54.7H69c-0.1,0-0.2,0-0.3-0.1c-0.1-0.1-0.1-0.1-0.2-0.2l-0.8-2.2h-4.1l-0.8,2.2c0,0.1-0.1,0.1-0.2,0.2
			c-0.1,0.1-0.2,0.1-0.3,0.1h-0.9l3.6-9h1.2L69.9,54.7z M64,51.4h3.4L66,47.7c-0.1-0.2-0.2-0.5-0.3-0.9c0,0.2-0.1,0.3-0.1,0.5
			c0,0.1-0.1,0.3-0.1,0.4L64,51.4z"/>
		<path class="st3" d="M85.7,51.8c0,0.1,0.1,0.2,0.1,0.3c0-0.1,0.1-0.2,0.1-0.3s0.1-0.2,0.2-0.3l3.1-5.6c0.1-0.1,0.1-0.2,0.2-0.2
			c0.1,0,0.1,0,0.3,0h0.9v9h-1.1v-6.6c0-0.1,0-0.2,0-0.3c0-0.1,0-0.2,0-0.3l-3.1,5.6c-0.1,0.2-0.3,0.3-0.4,0.3h-0.2
			c-0.2,0-0.3-0.1-0.4-0.3l-3.2-5.7c0,0.1,0,0.2,0,0.3c0,0.1,0,0.2,0,0.3v6.6h-1.1v-9H82c0.1,0,0.2,0,0.3,0c0.1,0,0.1,0.1,0.2,0.2
			l3.1,5.6C85.6,51.6,85.6,51.7,85.7,51.8z"/>
		<path class="st3" d="M101.9,45.7v1h-4.3v3h3.5v1h-3.5v3.1h4.3v1h-5.6v-9H101.9z"/>
		<path class="st3" d="M108.4,54.7h-1.2v-9h1.2V54.7z"/>
	</g>
	<g>
		<path class="st3" d="M101.9,69.7h-64c-2.3,0-4.2-1.9-4.2-4.2v-6c0-0.7,0.5-1.2,1.2-1.2c0.7,0,1.2,0.5,1.2,1.2v6
			c0,1,0.8,1.8,1.8,1.8h64c1,0,1.8-0.8,1.8-1.8v-6c0-0.7,0.5-1.2,1.2-1.2c0.7,0,1.2,0.5,1.2,1.2v6C106,67.8,104.2,69.7,101.9,69.7z"
			/>
	</g>
	<g>
		<path class="st3" d="M104.9,19.9c-0.7,0-1.2-0.5-1.2-1.2V4.7c0-1-0.8-1.8-1.8-1.8h-64c-1,0-1.8,0.8-1.8,1.8v14.1
			c0,0.7-0.5,1.2-1.2,1.2c-0.7,0-1.2-0.5-1.2-1.2V4.7c0-2.3,1.9-4.2,4.2-4.2h64c2.3,0,4.2,1.9,4.2,4.2v14.1
			C106,19.4,105.5,19.9,104.9,19.9z"/>
	</g>
	<g>
		<path class="st3" d="M98.7,13.9H41.1c-0.7,0-1.2-0.5-1.2-1.2s0.5-1.2,1.2-1.2h57.7c0.7,0,1.2,0.5,1.2,1.2S99.4,13.9,98.7,13.9z"/>
	</g>
	<g>
		<circle class="st2" cx="98.8" cy="7.2" r="1.4"/>
	</g>
	<g>
		<circle class="st2" cx="94.3" cy="7.2" r="1.4"/>
	</g>
	<g>
		<circle class="st2" cx="89.8" cy="7.2" r="1.4"/>
	</g>
</g>
</svg>
